<svg width="52" height="37" viewBox="0 0 52 37" fill="none" xmlns="http://www.w3.org/2000/svg">
<path id="Vector" d="M51.3867 0.167363C51.5631 0.218227 51.7182 0.324328 51.8288 0.469757C51.9394 0.615185 51.9994 0.792088 52 0.97391L52 11.8204C52.0001 11.9341 51.9771 12.0464 51.9323 12.1505C51.8875 12.2545 51.8219 12.3481 51.7396 12.4253C43.9373 19.8971 36.1266 27.3522 28.3075 34.7904C26.8708 36.1598 24.1655 36.5631 22.796 35.3953C17.475 30.892 9.99197 23.5938 0.346927 13.5007C0.201183 13.3446 0.120101 13.1374 0.120082 12.921L0.120083 1.53683C0.120075 1.41547 0.146355 1.29556 0.197117 1.18533C0.247879 1.07511 0.321922 0.977175 0.414143 0.898296C1.11988 0.29338 2.20368 0.310188 2.91782 0.982317C10.3504 7.99486 17.7298 15.0606 25.056 22.1796C25.2131 22.3335 25.4243 22.4197 25.6442 22.4197C25.8641 22.4197 26.0752 22.3335 26.2323 22.1796C33.4409 15.1166 40.6578 8.06208 47.8832 1.01593C48.8634 0.0637508 50.0312 -0.219111 51.3867 0.167363Z" fill="#1F1F1F"/>
</svg>
