<svg width="54" height="54" viewBox="0 0 54 54" fill="none" xmlns="http://www.w3.org/2000/svg">
<g id="Group">
<g id="Group_2">
<g id="Group_3">
<path id="Vector" d="M54 0H0V40.0645H9.41255C7.96326 42.7149 7.09926 45.7284 6.98603 48.9292C5.96526 49.2846 5.22581 50.2461 5.22581 51.3871C5.22581 52.8277 6.39813 54 7.83871 54C9.27929 54 10.4516 52.8277 10.4516 51.3871C10.4516 50.2662 9.73829 49.3159 8.74539 48.9458C8.86907 45.6962 9.83932 42.6678 11.4497 40.0645H17.4612C17.6345 41.9946 18.387 43.7984 19.6255 45.2903H18.2903V47.0323H20.0323V48.7742H18.2903V50.5161H20.0323V54H33.9677V50.5161H35.7097V48.7742H33.9677V47.0323H35.7097V45.2903H34.3754C35.6139 43.7984 36.3664 41.9946 36.5397 40.0645H42.5511C44.1607 42.6678 45.1318 45.6962 45.2555 48.9458C44.2617 49.3159 43.5484 50.2662 43.5484 51.3871C43.5484 52.8277 44.7207 54 46.1613 54C47.6019 54 48.7742 52.8277 48.7742 51.3871C48.7742 50.2461 48.0347 49.2846 47.014 48.9292C46.9007 45.7284 46.0376 42.7149 44.5875 40.0645H54V0ZM7.83871 52.2581C7.35881 52.2581 6.96774 51.867 6.96774 51.3871C6.96774 50.9072 7.35881 50.5161 7.83871 50.5161C8.31861 50.5161 8.70968 50.9072 8.70968 51.3871C8.70968 51.867 8.31861 52.2581 7.83871 52.2581ZM46.1613 50.5161C46.6412 50.5161 47.0323 50.9072 47.0323 51.3871C47.0323 51.867 46.6412 52.2581 46.1613 52.2581C45.6814 52.2581 45.2903 51.867 45.2903 51.3871C45.2903 50.9072 45.6814 50.5161 46.1613 50.5161ZM12.6639 38.3226C14.5617 35.9239 17.037 34.0017 19.892 32.7928C18.5438 34.2883 17.6563 36.2044 17.4638 38.3226H12.6639ZM32.2258 52.2581H21.7742V50.5161H32.2258V52.2581ZM32.2258 48.7742H21.7742V47.0323H32.2258V48.7742ZM32.4871 44.7869L32.2258 45.043V45.2903H27.871V42.5537C29.369 42.1644 30.4839 40.8118 30.4839 39.1936C30.4839 37.2722 28.9214 35.7097 27 35.7097C25.0786 35.7097 23.5161 37.2722 23.5161 39.1936C23.5161 40.8118 24.631 42.1644 26.129 42.5537V45.2903H21.7742V45.043L21.5129 44.7869C19.9965 43.2984 19.1613 41.3126 19.1613 39.1936C19.1613 34.8718 22.6783 31.3548 27 31.3548C31.3217 31.3548 34.8387 34.8718 34.8387 39.1936C34.8387 41.3126 34.0035 43.2984 32.4871 44.7869ZM27 40.9355C26.0393 40.9355 25.2581 40.1542 25.2581 39.1936C25.2581 38.2329 26.0393 37.4516 27 37.4516C27.9607 37.4516 28.7419 38.2329 28.7419 39.1936C28.7419 40.1542 27.9607 40.9355 27 40.9355ZM36.5362 38.3226C36.3437 36.2044 35.4562 34.2883 34.108 32.7928C36.9621 34.0017 39.4383 35.9239 41.3361 38.3226H36.5362ZM52.2581 38.3226H43.5135C41.4319 35.296 38.5403 32.8703 35.1549 31.3548H45.4506C45.8112 32.366 46.7692 33.0968 47.9032 33.0968C49.3438 33.0968 50.5161 31.9245 50.5161 30.4839C50.5161 29.0433 49.3438 27.871 47.9032 27.871C46.7692 27.871 45.8112 28.6017 45.4506 29.6129H8.54942C8.18884 28.6017 7.23077 27.871 6.09677 27.871C4.65619 27.871 3.48387 29.0433 3.48387 30.4839C3.48387 31.9245 4.65619 33.0968 6.09677 33.0968C7.23077 33.0968 8.18884 32.366 8.54942 31.3548H18.8451C15.4597 32.8703 12.5681 35.296 10.4865 38.3226H1.74194V8.70968H52.2581V38.3226ZM47.0323 30.4839C47.0323 30.004 47.4233 29.6129 47.9032 29.6129C48.3831 29.6129 48.7742 30.004 48.7742 30.4839C48.7742 30.9638 48.3831 31.3548 47.9032 31.3548C47.4233 31.3548 47.0323 30.9638 47.0323 30.4839ZM6.96774 30.4839C6.96774 30.9638 6.57668 31.3548 6.09677 31.3548C5.61687 31.3548 5.22581 30.9638 5.22581 30.4839C5.22581 30.004 5.61687 29.6129 6.09677 29.6129C6.57668 29.6129 6.96774 30.004 6.96774 30.4839ZM52.2581 6.96774H1.74194V1.74194H52.2581V6.96774Z" fill="#6B7280"/>
<path id="Vector_2" d="M8.70969 3.48389H3.48389V5.22582H8.70969V3.48389Z" fill="#6B7280"/>
<path id="Vector_3" d="M12.1935 3.48389H10.4515V5.22582H12.1935V3.48389Z" fill="#6B7280"/>
<path id="Vector_4" d="M17.4194 10.4515H3.48389V26.129H17.4194V10.4515ZM15.6774 24.387H5.22582V12.1935H15.6774V24.387Z" fill="#6B7280"/>
<path id="Vector_5" d="M34.8387 10.4515H19.1613V26.129H34.8387V10.4515ZM33.0967 24.387H20.9032V12.1935H33.0967V24.387Z" fill="#6B7280"/>
<path id="Vector_6" d="M50.5161 10.4515H36.5806V26.129H50.5161V10.4515ZM48.7741 24.387H38.3225V12.1935H48.7741V24.387Z" fill="#6B7280"/>
</g>
</g>
</g>
</svg>
